<svg width="27" height="25" viewBox="0 0 27 25" fill="none" xmlns="http://www.w3.org/2000/svg">
<path fill-rule="evenodd" clip-rule="evenodd" d="M10 20V24H16V20L18 16L13 10L9 16L10 20Z" stroke="black" stroke-width="2" stroke-linecap="round" stroke-linejoin="round"/>
<path fill-rule="evenodd" clip-rule="evenodd" d="M14.8651 4.86511H12.1349C11.8314 4.86511 12.1349 5.16862 12.1349 4.86511V2.13489C12.1349 1.83138 11.8314 2.13489 12.1349 2.13489H14.8651C15.1686 2.13489 14.8651 1.83138 14.8651 2.13489V4.86511C14.8651 5.16862 15.1686 4.86511 14.8651 4.86511Z" stroke="black" stroke-width="2" stroke-linecap="round" stroke-linejoin="round"/>
<path fill-rule="evenodd" clip-rule="evenodd" d="M2.13489 15.8651H4.86511C5.16862 15.8651 4.86511 16.1686 4.86511 15.8651V13.1349C4.86511 12.8314 5.16862 13.1349 4.86511 13.1349H2.13489C1.83138 13.1349 2.13489 12.8314 2.13489 13.1349V15.8651C2.13489 16.1686 1.83138 15.8651 2.13489 15.8651Z" stroke="black" stroke-width="2" stroke-linecap="round" stroke-linejoin="round"/>
<path fill-rule="evenodd" clip-rule="evenodd" d="M24.8651 15.8651H22.1349C21.8314 15.8651 22.1349 16.1686 22.1349 15.8651V13.1349C22.1349 12.8314 21.8314 13.1349 22.1349 13.1349H24.8651C25.1686 13.1349 24.8651 12.8314 24.8651 13.1349V15.8651C24.8651 16.1686 25.1686 15.8651 24.8651 15.8651Z" stroke="black" stroke-width="2" stroke-linecap="round" stroke-linejoin="round"/>
<path d="M12 4C7.39262 4.53771 4 8.24883 4 13" stroke="black" stroke-width="2" stroke-linecap="round" stroke-linejoin="round"/>
<path d="M24 13C24 8.26575 20.582 4.55946 16 4" stroke="black" stroke-width="2" stroke-linecap="round" stroke-linejoin="round"/>
<path d="M11 21H16" stroke="black" stroke-width="2" stroke-linecap="round" stroke-linejoin="round"/>
<path d="M13 17V10" stroke="black" stroke-width="2" stroke-linecap="round" stroke-linejoin="round"/>
</svg>
