<svg width="110" height="54" viewBox="0 0 110 54" fill="none" xmlns="http://www.w3.org/2000/svg">
<path d="M39.857 21.587C39.857 27.6741 34.8969 32.6087 28.7784 32.6087C22.6598 32.6087 17.6997 27.6741 17.6997 21.587C17.6997 15.4998 22.6598 10.5652 28.7784 10.5652C34.8969 10.5652 39.857 15.4998 39.857 21.587ZM21.1909 21.587C21.1909 25.7559 24.5879 29.1355 28.7784 29.1355C32.9688 29.1355 36.3659 25.7559 36.3659 21.587C36.3659 17.4181 32.9688 14.0385 28.7784 14.0385C24.5879 14.0385 21.1909 17.4181 21.1909 21.587Z" fill="#A1C4FF"/>
<path d="M66.3409 21.587C66.3409 27.6741 61.3808 32.6087 55.2623 32.6087C49.1437 32.6087 44.1836 27.6741 44.1836 21.587C44.1836 15.4998 49.1437 10.5652 55.2623 10.5652C61.3808 10.5652 66.3409 15.4998 66.3409 21.587ZM47.6748 21.587C47.6748 25.7559 51.0718 29.1355 55.2623 29.1355C59.4527 29.1355 62.8498 25.7559 62.8498 21.587C62.8498 17.4181 59.4527 14.0385 55.2623 14.0385C51.0718 14.0385 47.6748 17.4181 47.6748 21.587Z" fill="#A1C4FF"/>
<path fill-rule="evenodd" clip-rule="evenodd" d="M81.7462 32.6087C87.8647 32.6087 92.8248 27.6741 92.8248 21.587C92.8248 15.4998 87.8647 10.5652 81.7462 10.5652C75.6276 10.5652 70.6675 15.4998 70.6675 21.587C70.6675 21.7947 70.6733 22.001 70.6847 22.2058C70.6734 22.2659 70.6675 22.3279 70.6675 22.3913V53C70.6675 53.5523 71.1152 54 71.6675 54H73.0763C73.6286 54 74.0763 53.5523 74.0763 53V29.5403C76.0669 31.4408 78.7694 32.6087 81.7462 32.6087ZM81.7462 29.1355C77.5557 29.1355 74.1587 25.7559 74.1587 21.587C74.1587 17.4181 77.5557 14.0385 81.7462 14.0385C85.9366 14.0385 89.3336 17.4181 89.3336 21.587C89.3336 25.7559 85.9366 29.1355 81.7462 29.1355Z" fill="#A1C4FF"/>
<path fill-rule="evenodd" clip-rule="evenodd" d="M1 0C0.447715 0 0 0.447717 0 1V31.6087C0 32.161 0.447716 32.6087 1 32.6087H3.67104H12.3731C12.9253 32.6087 13.3731 32.161 13.3731 31.6087V29.9565C13.3731 29.4042 12.9253 28.9565 12.3731 28.9565H3.67104V1C3.67104 0.447715 3.22332 0 2.67104 0H1Z" fill="#A1C4FF"/>
<path d="M0 0.999999C0 0.447715 0.447715 0 1 0H12.3731C12.9253 0 13.3731 0.447715 13.3731 1V2.65217C13.3731 3.20446 12.9253 3.65217 12.3731 3.65217H0V0.999999Z" fill="#475773"/>
<path fill-rule="evenodd" clip-rule="evenodd" d="M98.1511 0C97.5988 0 97.1511 0.447715 97.1511 0.999999V2.65217C97.1511 3.20446 97.5988 3.65217 98.1511 3.65217H106.329V28.9565H98.1511C97.5988 28.9565 97.1511 29.4042 97.1511 29.9565V31.6087C97.1511 32.161 97.5988 32.6087 98.1511 32.6087H106.853V32.4887C106.995 32.5652 107.157 32.6087 107.329 32.6087H109C109.552 32.6087 110 32.161 110 31.6087V1C110 0.447715 109.552 0 109 0H107.329C107.157 0 106.995 0.0434784 106.853 0.120051V0H98.1511Z" fill="#475773"/>
</svg>
