<svg width="30" height="30" viewBox="0 0 30 30" fill="none" xmlns="http://www.w3.org/2000/svg">
<path fill-rule="evenodd" clip-rule="evenodd" d="M16 25H23C24.3813 25 25 23.3813 25 22V7C25 5.61875 24.3813 5 23 5H5C3.61875 5 3 5.61875 3 7V22C3 23.3813 3.61875 25 5 25H11L14 27L16 25Z" stroke="black" stroke-linecap="round" stroke-linejoin="round"/>
<path d="M9 18.5L10.8918 18.5C11.2571 18.5 11.8377 18.8145 11.8377 18.5V12.8455C11.8377 12.432 11.2571 12.8455 10.8918 12.8455H10.0339H9.00004M9 18.5C8.63466 18.5 9 18.864 9 18.5ZM9 18.5L9.00004 12.8455M9.00004 12.8455C9.00004 12.4815 8.6347 12.8455 9.00004 12.8455Z" stroke="black" stroke-linecap="round" stroke-linejoin="round"/>
<path d="M12 13.7664L13.9606 9.77129C14.8319 8.31932 16.9015 9.06715 16.9015 10.7701V12.7676H17.8818H18.8621C19.4172 12.7676 19.5336 12.796 19.8424 13.2692C20.1157 13.6874 19.9784 14.282 19.8424 14.7652V18.3115C19.6905 18.8508 18.432 18.7603 17.8818 18.7603H13.9606C13.604 18.7603 13.2548 18.9925 12.9803 18.7603L12 17.7615" stroke="black" stroke-linecap="round" stroke-linejoin="round"/>
</svg>
