<svg width="30" height="30" viewBox="0 0 30 30" fill="none" xmlns="http://www.w3.org/2000/svg">
<path d="M15.0383 12.0383C15.1246 12.0383 15.0383 12.1246 15.0383 12.0383C15.0383 11.9521 15.1233 12.0383 15.0383 12.0383C14.9521 12.0383 15.0383 11.9521 15.0383 12.0383C15.0383 12.1246 14.9521 12.0383 15.0383 12.0383" stroke="black" stroke-width="2" stroke-linecap="round" stroke-linejoin="round"/>
<path fill-rule="evenodd" clip-rule="evenodd" d="M11.3215 13.8358C10.9066 12.5298 11.2195 11.1481 12.259 10.1109C13.7473 8.62911 16.3947 8.63028 17.8842 10.1109C19.3737 11.5904 19.3702 13.2841 17.8842 14.767C16.84 15.8065 14.5126 16.1161 13.1965 15.6982L11.3215 18.4919C10.6406 19.1694 9.18978 19.1694 8.5089 18.4919C7.83037 17.8168 7.83037 17.3058 8.5089 16.6295L11.3215 13.8358Z" stroke="black" stroke-width="2" stroke-linecap="round" stroke-linejoin="round"/>
<path d="M5 5V7H7" stroke="black" stroke-width="2" stroke-linecap="round" stroke-linejoin="round"/>
<path d="M5 7C7.03361 4.13375 10.2019 3 13.9773 3C20.1754 3 24.9496 7.78625 24.9496 14C24.9496 14.6738 25.063 15.36 24.9496 16" stroke="black" stroke-width="2" stroke-linecap="round" stroke-linejoin="round"/>
<path d="M23 23V21H21" stroke="black" stroke-width="2" stroke-linecap="round" stroke-linejoin="round"/>
<path d="M23 21C20.9664 23.8663 16.5 25 13 25C6.5 24.5 3.05043 20.2138 3.05043 14C3.05043 13.3262 2.93696 13.64 3.05043 13" stroke="black" stroke-width="2" stroke-linecap="round" stroke-linejoin="round"/>
</svg>
